<svg height="512" viewBox="0 0 58 58" width="512" xmlns="http://www.w3.org/2000/svg"><g id="037---Astronaut" fill="none"><path id="Shape" d="m57.94 47c-.379366-2.8836197-2.2938603-5.3341723-5-6.4.1 0 .06.72.06-6.58 0-3.3137085-2.6862915-6-6-6 1.740366-5.1296679 1.197335-10.7593913-1.4914155-15.4618361-2.6887504-4.70244475-7.2650281-8.02604992-12.5685845-9.1281639-.3352475-1.91370895-1.9971483-3.30978264-3.94-3.30978264s-3.6047525 1.39607369-3.94 3.30978264c-5.298709 1.10299611-9.8708324 4.42355319-12.5589638 9.1210915-2.68813142 4.6975384-3.23458755 10.3217537-1.5010362 15.4489085-3.3137085 0-6 2.6862915-6 6 0 7.12 0 6.58.06 6.58-2.70613973 1.0658277-4.62063396 3.5163803-5 6.4-.06.68-.06.09-.06 11.02h58c0-10.88 0-10.34-.06-11z" fill="#bdc3c7"/><path id="Shape" d="m9 40.58v-6.58c0-3.31 2.24-6 5-6h30c2.76 0 5 2.69 5 6v6.58z" fill="#95a5a5"/><path id="Shape" d="m11.31 40v18h-9.31c0-10.73 0-10.31.06-11 .3283271-3.8714083 3.50649119-6.8818479 7.39-7z" fill="#ecf0f1"/><path id="Shape" d="m56 48v10h-9.31v-18h1.86c4.2638947.1573605 7.5962318 3.7357092 7.45 8z" fill="#ecf0f1"/><g fill="#95a5a5"><path id="Shape" d="m5 46c0 .5522847-.44771525 1-1 1-4 0-3.75 0-3.94 0 .0888235-.6858261.26352702-1.3577627.52-2h3.42c.55228475 0 1 .4477153 1 1z"/><path id="Shape" d="m10 47h-2c-.55228475 0-1-.4477153-1-1s.44771525-1 1-1h2c.5522847 0 1 .4477153 1 1s-.4477153 1-1 1z"/><path id="Shape" d="m10 51h-2c-.55228475 0-1-.4477153-1-1s.44771525-1 1-1h2c.5522847 0 1 .4477153 1 1s-.4477153 1-1 1z"/><path id="Shape" d="m5 50c0 .5522847-.44771525 1-1 1h-4v-2h4c.55228475 0 1 .4477153 1 1z"/><path id="Shape" d="m5 54c0 .5522847-.44771525 1-1 1h-4v-2h4c.55228475 0 1 .4477153 1 1z"/><path id="Shape" d="m10 55h-2c-.55228475 0-1-.4477153-1-1s.44771525-1 1-1h2c.5522847 0 1 .4477153 1 1s-.4477153 1-1 1z"/><path id="Shape" d="m57.94 47c-.19 0-.19 0-3.94 0-.5522847 0-1-.4477153-1-1s.4477153-1 1-1h3.42c.256473.6422373.4311765 1.3141739.52 2z"/><path id="Shape" d="m50 47h-2c-.5522847 0-1-.4477153-1-1s.4477153-1 1-1h2c.5522847 0 1 .4477153 1 1s-.4477153 1-1 1z"/><path id="Shape" d="m50 51h-2c-.5522847 0-1-.4477153-1-1s.4477153-1 1-1h2c.5522847 0 1 .4477153 1 1s-.4477153 1-1 1z"/><path id="Shape" d="m58 49v2h-4c-.5522847 0-1-.4477153-1-1s.4477153-1 1-1z"/><path id="Shape" d="m58 53v2h-4c-.5522847 0-1-.4477153-1-1s.4477153-1 1-1z"/><path id="Shape" d="m50 55h-2c-.5522847 0-1-.4477153-1-1s.4477153-1 1-1h2c.5522847 0 1 .4477153 1 1s-.4477153 1-1 1z"/></g><path id="Shape" d="m33 4.46v-.46c0-2.209139-1.790861-4-4-4s-4 1.790861-4 4v.46z" fill="#7f8c8d"/><path id="Shape" d="m40.64 8.28c-8.22 2.34-23.5 8.24-28.22 20.72-3.22888538-7.6744887-.7729737-16.5618974 5.9383382-21.48955093 6.711312-4.92765357 15.926313-4.60939128 22.2816618.76955093z" fill="#547580"/><path id="Shape" d="m40.31 36h-22.62c-2.2999178-1.8699157-4.1088898-4.2727249-5.27-7 4.72-12.51 20-18.41 28.22-20.75 4.0974336 3.4684439 6.4328968 8.5847427 6.3690616 13.9527024-.0638352 5.3679596-2.5203056 10.4272732-6.6990616 13.7972976z" fill="#3f5c6c"/><path id="Shape" d="m40.31 37c-.425209.0017994-.8050556-.2654933-.9469283-.66634s-.0147415-.8475753.3169283-1.11366c6.1378284-4.973438 8.0407879-13.5196667 4.5930525-20.6274894-3.4477354-7.10782265-11.337512-10.90396625-19.0430525-9.1625106-14 3.16-17.83 21-6.91 29.79.4307821.3479394.4979394.9792179.15 1.41s-.9792179.4979394-1.41.15c-12.17-9.85-7.92-29.78 7.72-33.3 8.6169904-1.95867441 17.4468132 2.28205026 21.3048838 10.2321585 3.8580705 7.9501083 1.7257701 17.51059-5.1448838 23.0678415-.1786159.1433043-.4010047.220964-.63.22z" fill="#d1d4d1"/><path id="Shape" d="m13 36h32c1.6568542 0 3 1.3431458 3 3v19h-38v-19c0-1.6568542 1.3431458-3 3-3z" fill="#bdc3c7"/><path id="Shape" d="m15 36h28c1.6568542 0 3 1.3431458 3 3v19h-34v-19c0-1.6568542 1.3431458-3 3-3z" fill="#ecf0f1"/><path id="Shape" d="m17 42h12c1.1045695 0 2 .8954305 2 2v14h-16v-14c0-1.1045695.8954305-2 2-2z" fill="#fff"/><path id="Shape" d="m26 49h-6c-.5522847 0-1-.4477153-1-1s.4477153-1 1-1h6c.5522847 0 1 .4477153 1 1s-.4477153 1-1 1z" fill="#7f8c8d"/><path id="Shape" d="m26 54h-6c-.5522847 0-1-.4477153-1-1s.4477153-1 1-1h6c.5522847 0 1 .4477153 1 1s-.4477153 1-1 1z" fill="#7f8c8d"/><circle id="Oval" cx="39" cy="49" fill="#2fa8cc" r="3"/><path id="Shape" d="m17 16c-.4062651.0023626-.77358-.2413038-.929371-.6165185-.1557909-.3752147-.0690889-.807391.219371-1.0934815l3-3c.2536586-.2536586.623374-.3527235.969878-.259878.3465041.0928454.6171546.3634959.71.71.0928455.346504-.0062194.7162194-.259878.969878l-3 3c-.1887188.1871865-.444197.2915368-.71.29z" fill="#fff"/><path id="Shape" d="m16 24c-.4062651.0023626-.77358-.2413038-.929371-.6165185-.1557909-.3752147-.0690889-.807391.219371-1.0934815l12-12c.3921222-.39212217 1.0278778-.39212217 1.42 0 .3921222.3921222.3921222 1.0278778 0 1.42l-12 12c-.1887188.1871865-.444197.2915368-.71.29z" fill="#fff"/></g></svg>